<mxfile host="app.diagrams.net" modified="2023-12-09T15:26:23.153Z" agent="Mozilla/5.0 (Macintosh; Intel Mac OS X 10_15_7) AppleWebKit/537.36 (KHTML, like Gecko) Chrome/119.0.0.0 Safari/537.36" etag="STtXyuaqGzuB-dV-y1fZ" version="21.3.4" type="device">
  <diagram name="ページ1" id="aaLY1FDPqDXwMD7Z5EJ9">
    <mxGraphModel dx="1403" dy="726" grid="1" gridSize="10" guides="1" tooltips="1" connect="1" arrows="1" fold="1" page="1" pageScale="1" pageWidth="827" pageHeight="1169" math="0" shadow="0">
      <root>
        <mxCell id="0" />
        <mxCell id="1" parent="0" />
        <mxCell id="ExrKMSSEsAmcmJaE7wDd-7" style="edgeStyle=orthogonalEdgeStyle;rounded=0;orthogonalLoop=1;jettySize=auto;html=1;exitX=0;exitY=0.25;exitDx=0;exitDy=0;entryX=1;entryY=0.25;entryDx=0;entryDy=0;" edge="1" parent="1" source="ExrKMSSEsAmcmJaE7wDd-1" target="ExrKMSSEsAmcmJaE7wDd-2">
          <mxGeometry relative="1" as="geometry" />
        </mxCell>
        <mxCell id="ExrKMSSEsAmcmJaE7wDd-27" style="edgeStyle=orthogonalEdgeStyle;rounded=0;orthogonalLoop=1;jettySize=auto;html=1;entryX=0.5;entryY=1;entryDx=0;entryDy=0;" edge="1" parent="1" source="ExrKMSSEsAmcmJaE7wDd-1" target="ExrKMSSEsAmcmJaE7wDd-26">
          <mxGeometry relative="1" as="geometry" />
        </mxCell>
        <mxCell id="ExrKMSSEsAmcmJaE7wDd-1" value="&lt;font style=&quot;font-size: 16px;&quot;&gt;Action&lt;br&gt;Creators&lt;/font&gt;" style="rounded=1;whiteSpace=wrap;html=1;fillColor=#dae8fc;strokeColor=#6c8ebf;" vertex="1" parent="1">
          <mxGeometry x="410" y="240" width="120" height="50" as="geometry" />
        </mxCell>
        <mxCell id="ExrKMSSEsAmcmJaE7wDd-8" style="edgeStyle=orthogonalEdgeStyle;rounded=0;orthogonalLoop=1;jettySize=auto;html=1;exitX=1;exitY=0.75;exitDx=0;exitDy=0;entryX=0;entryY=0.75;entryDx=0;entryDy=0;" edge="1" parent="1" source="ExrKMSSEsAmcmJaE7wDd-2" target="ExrKMSSEsAmcmJaE7wDd-1">
          <mxGeometry relative="1" as="geometry" />
        </mxCell>
        <mxCell id="ExrKMSSEsAmcmJaE7wDd-9" style="edgeStyle=orthogonalEdgeStyle;rounded=0;orthogonalLoop=1;jettySize=auto;html=1;exitX=0;exitY=0.25;exitDx=0;exitDy=0;entryX=1;entryY=0.25;entryDx=0;entryDy=0;" edge="1" parent="1" source="ExrKMSSEsAmcmJaE7wDd-2" target="ExrKMSSEsAmcmJaE7wDd-4">
          <mxGeometry relative="1" as="geometry" />
        </mxCell>
        <mxCell id="ExrKMSSEsAmcmJaE7wDd-2" value="&lt;font style=&quot;font-size: 16px;&quot;&gt;UseCase&lt;/font&gt;" style="rounded=1;whiteSpace=wrap;html=1;fillColor=#d5e8d4;strokeColor=#82b366;" vertex="1" parent="1">
          <mxGeometry x="240" y="240" width="120" height="50" as="geometry" />
        </mxCell>
        <mxCell id="ExrKMSSEsAmcmJaE7wDd-3" value="&lt;span style=&quot;font-size: 16px;&quot;&gt;Web API&lt;/span&gt;" style="rounded=1;whiteSpace=wrap;html=1;fillColor=#fff2cc;strokeColor=#d6b656;" vertex="1" parent="1">
          <mxGeometry x="50" y="140" width="120" height="50" as="geometry" />
        </mxCell>
        <mxCell id="ExrKMSSEsAmcmJaE7wDd-12" style="edgeStyle=orthogonalEdgeStyle;rounded=0;orthogonalLoop=1;jettySize=auto;html=1;exitX=1;exitY=0.75;exitDx=0;exitDy=0;entryX=0;entryY=0.75;entryDx=0;entryDy=0;" edge="1" parent="1" source="ExrKMSSEsAmcmJaE7wDd-4" target="ExrKMSSEsAmcmJaE7wDd-2">
          <mxGeometry relative="1" as="geometry" />
        </mxCell>
        <mxCell id="ExrKMSSEsAmcmJaE7wDd-4" value="&lt;span style=&quot;font-size: 16px;&quot;&gt;SQLite&lt;/span&gt;" style="rounded=1;whiteSpace=wrap;html=1;fillColor=#fff2cc;strokeColor=#d6b656;" vertex="1" parent="1">
          <mxGeometry x="50" y="240" width="120" height="50" as="geometry" />
        </mxCell>
        <mxCell id="ExrKMSSEsAmcmJaE7wDd-5" value="&lt;span style=&quot;font-size: 16px;&quot;&gt;Shared&lt;br&gt;Preference&lt;br&gt;&lt;/span&gt;" style="rounded=1;whiteSpace=wrap;html=1;fillColor=#fff2cc;strokeColor=#d6b656;" vertex="1" parent="1">
          <mxGeometry x="50" y="340" width="120" height="50" as="geometry" />
        </mxCell>
        <mxCell id="ExrKMSSEsAmcmJaE7wDd-20" value="" style="endArrow=classic;html=1;rounded=0;" edge="1" parent="1">
          <mxGeometry width="50" height="50" relative="1" as="geometry">
            <mxPoint x="220" y="240" as="sourcePoint" />
            <mxPoint x="170" y="200" as="targetPoint" />
          </mxGeometry>
        </mxCell>
        <mxCell id="ExrKMSSEsAmcmJaE7wDd-23" value="" style="endArrow=classic;html=1;rounded=0;" edge="1" parent="1">
          <mxGeometry width="50" height="50" relative="1" as="geometry">
            <mxPoint x="220" y="300" as="sourcePoint" />
            <mxPoint x="170" y="340" as="targetPoint" />
          </mxGeometry>
        </mxCell>
        <mxCell id="ExrKMSSEsAmcmJaE7wDd-24" value="" style="endArrow=none;html=1;rounded=0;endFill=0;startArrow=classic;startFill=1;" edge="1" parent="1">
          <mxGeometry width="50" height="50" relative="1" as="geometry">
            <mxPoint x="230" y="230" as="sourcePoint" />
            <mxPoint x="180" y="190" as="targetPoint" />
          </mxGeometry>
        </mxCell>
        <mxCell id="ExrKMSSEsAmcmJaE7wDd-25" value="" style="endArrow=none;html=1;rounded=0;endFill=0;startArrow=classic;startFill=1;" edge="1" parent="1">
          <mxGeometry width="50" height="50" relative="1" as="geometry">
            <mxPoint x="230" y="310" as="sourcePoint" />
            <mxPoint x="180" y="350" as="targetPoint" />
          </mxGeometry>
        </mxCell>
        <mxCell id="ExrKMSSEsAmcmJaE7wDd-32" style="edgeStyle=orthogonalEdgeStyle;rounded=0;orthogonalLoop=1;jettySize=auto;html=1;entryX=0;entryY=0.5;entryDx=0;entryDy=0;" edge="1" parent="1" source="ExrKMSSEsAmcmJaE7wDd-26" target="ExrKMSSEsAmcmJaE7wDd-28">
          <mxGeometry relative="1" as="geometry" />
        </mxCell>
        <mxCell id="ExrKMSSEsAmcmJaE7wDd-26" value="&lt;font style=&quot;font-size: 16px;&quot;&gt;Actions&lt;br&gt;&lt;/font&gt;" style="rounded=1;whiteSpace=wrap;html=1;fillColor=#dae8fc;strokeColor=#6c8ebf;" vertex="1" parent="1">
          <mxGeometry x="410" y="140" width="120" height="50" as="geometry" />
        </mxCell>
        <mxCell id="ExrKMSSEsAmcmJaE7wDd-33" style="edgeStyle=orthogonalEdgeStyle;rounded=0;orthogonalLoop=1;jettySize=auto;html=1;" edge="1" parent="1" source="ExrKMSSEsAmcmJaE7wDd-28" target="ExrKMSSEsAmcmJaE7wDd-29">
          <mxGeometry relative="1" as="geometry" />
        </mxCell>
        <mxCell id="ExrKMSSEsAmcmJaE7wDd-28" value="&lt;font style=&quot;font-size: 16px;&quot;&gt;Dispatcher&lt;br&gt;&lt;/font&gt;" style="rounded=1;whiteSpace=wrap;html=1;fillColor=#dae8fc;strokeColor=#6c8ebf;" vertex="1" parent="1">
          <mxGeometry x="600" y="140" width="120" height="50" as="geometry" />
        </mxCell>
        <mxCell id="ExrKMSSEsAmcmJaE7wDd-34" style="edgeStyle=orthogonalEdgeStyle;rounded=0;orthogonalLoop=1;jettySize=auto;html=1;" edge="1" parent="1" source="ExrKMSSEsAmcmJaE7wDd-29" target="ExrKMSSEsAmcmJaE7wDd-30">
          <mxGeometry relative="1" as="geometry" />
        </mxCell>
        <mxCell id="ExrKMSSEsAmcmJaE7wDd-29" value="&lt;font style=&quot;font-size: 16px;&quot;&gt;Store&lt;br&gt;&lt;/font&gt;" style="rounded=1;whiteSpace=wrap;html=1;fillColor=#dae8fc;strokeColor=#6c8ebf;" vertex="1" parent="1">
          <mxGeometry x="600" y="240" width="120" height="50" as="geometry" />
        </mxCell>
        <mxCell id="ExrKMSSEsAmcmJaE7wDd-35" style="edgeStyle=orthogonalEdgeStyle;rounded=0;orthogonalLoop=1;jettySize=auto;html=1;entryX=1;entryY=0.5;entryDx=0;entryDy=0;" edge="1" parent="1" source="ExrKMSSEsAmcmJaE7wDd-30" target="ExrKMSSEsAmcmJaE7wDd-31">
          <mxGeometry relative="1" as="geometry" />
        </mxCell>
        <mxCell id="ExrKMSSEsAmcmJaE7wDd-30" value="&lt;font style=&quot;font-size: 16px;&quot;&gt;View&lt;br&gt;&lt;/font&gt;" style="rounded=1;whiteSpace=wrap;html=1;fillColor=#dae8fc;strokeColor=#6c8ebf;" vertex="1" parent="1">
          <mxGeometry x="600" y="340" width="120" height="50" as="geometry" />
        </mxCell>
        <mxCell id="ExrKMSSEsAmcmJaE7wDd-36" style="edgeStyle=orthogonalEdgeStyle;rounded=0;orthogonalLoop=1;jettySize=auto;html=1;entryX=0.5;entryY=1;entryDx=0;entryDy=0;" edge="1" parent="1" source="ExrKMSSEsAmcmJaE7wDd-31" target="ExrKMSSEsAmcmJaE7wDd-1">
          <mxGeometry relative="1" as="geometry" />
        </mxCell>
        <mxCell id="ExrKMSSEsAmcmJaE7wDd-31" value="&lt;font style=&quot;font-size: 16px;&quot;&gt;User&lt;br&gt;Interactions&lt;br&gt;&lt;/font&gt;" style="rounded=1;whiteSpace=wrap;html=1;fillColor=#dae8fc;strokeColor=#6c8ebf;" vertex="1" parent="1">
          <mxGeometry x="410" y="340" width="120" height="50" as="geometry" />
        </mxCell>
        <mxCell id="ExrKMSSEsAmcmJaE7wDd-37" value="&lt;font style=&quot;font-size: 15px;&quot;&gt;Presentation Layer&lt;/font&gt;" style="text;html=1;strokeColor=none;fillColor=none;align=center;verticalAlign=middle;whiteSpace=wrap;rounded=0;" vertex="1" parent="1">
          <mxGeometry x="535" y="80" width="60" height="30" as="geometry" />
        </mxCell>
        <mxCell id="ExrKMSSEsAmcmJaE7wDd-38" value="&lt;font style=&quot;font-size: 15px;&quot;&gt;Domain&lt;br&gt;Layer&lt;/font&gt;" style="text;html=1;strokeColor=none;fillColor=none;align=center;verticalAlign=middle;whiteSpace=wrap;rounded=0;" vertex="1" parent="1">
          <mxGeometry x="270" y="80" width="60" height="30" as="geometry" />
        </mxCell>
        <mxCell id="ExrKMSSEsAmcmJaE7wDd-39" value="&lt;font style=&quot;font-size: 15px;&quot;&gt;Data&lt;br&gt;Layer&lt;/font&gt;" style="text;html=1;strokeColor=none;fillColor=none;align=center;verticalAlign=middle;whiteSpace=wrap;rounded=0;" vertex="1" parent="1">
          <mxGeometry x="80" y="80" width="60" height="30" as="geometry" />
        </mxCell>
      </root>
    </mxGraphModel>
  </diagram>
</mxfile>
